<?xml version="1.0" standalone="no"?>
<!DOCTYPE svg PUBLIC "-//W3C//DTD SVG 20010904//EN"
 "http://www.w3.org/TR/2001/REC-SVG-20010904/DTD/svg10.dtd">
<svg version="1.0" xmlns="http://www.w3.org/2000/svg"
 width="260.000000pt" height="260.000000pt" viewBox="0 0 260.000000 260.000000"
 preserveAspectRatio="xMidYMid meet">
<metadata>
Created by potrace 1.14, written by Peter Selinger 2001-2017
</metadata>
<g transform="translate(0.000000,260.000000) scale(0.100000,-0.100000)"
fill="#000000" stroke="none">
<path d="M380 1595 l0 -205 46 0 46 0 -4 134 c-2 74 -1 133 2 131 3 -2 34 -62
70 -134 46 -94 69 -131 82 -131 13 0 37 39 87 138 l70 137 0 -137 1 -138 40 0
40 0 0 205 0 205 -51 0 -50 0 -68 -140 -68 -140 -66 140 -66 140 -55 0 -56 0
0 -205z"/>
<path d="M920 1484 l0 -215 38 3 37 3 3 77 c3 78 3 78 23 59 47 -44 134 -33
189 24 30 31 35 43 38 98 3 52 0 67 -20 97 -44 66 -147 92 -201 50 -25 -20
-25 -20 -30 0 -4 15 -14 20 -41 20 l-36 0 0 -216z m225 121 c31 -30 33 -82 4
-119 -27 -34 -91 -37 -126 -4 -54 51 -14 148 62 148 25 0 44 -8 60 -25z"/>
<path d="M1362 1683 c-49 -24 -75 -68 -80 -132 -4 -66 20 -111 78 -145 59 -35
169 -21 209 27 10 12 7 19 -17 36 l-29 20 -40 -20 c-44 -22 -84 -15 -109 19
-12 16 -4 17 104 22 l117 5 3 35 c3 46 -33 108 -78 131 -43 23 -114 24 -158 2z
m131 -71 c35 -31 21 -42 -53 -42 -74 0 -88 11 -52 42 34 31 70 31 105 0z"/>
<path d="M1669 1685 c-33 -18 -52 -63 -43 -99 7 -31 52 -63 101 -72 42 -8 60
-29 43 -49 -16 -19 -60 -19 -88 0 -19 14 -24 14 -47 -1 -31 -20 -28 -33 13
-57 65 -38 170 -20 197 34 32 60 4 108 -78 134 -64 21 -74 30 -57 50 16 19 49
19 71 -1 16 -14 20 -14 43 1 33 22 32 28 0 54 -32 25 -114 28 -155 6z"/>
<path d="M1959 1678 c-105 -60 -104 -211 1 -272 45 -27 112 -25 150 3 30 21
30 21 30 1 0 -17 6 -20 40 -20 l41 0 -3 153 -3 152 -37 3 c-33 3 -38 0 -38
-17 0 -12 -4 -21 -10 -21 -5 0 -10 4 -10 8 0 15 -49 32 -88 32 -20 0 -53 -10
-73 -22z m144 -68 c33 -26 43 -70 23 -108 -17 -34 -34 -42 -81 -42 -44 0 -74
27 -82 72 -5 32 -1 41 25 68 36 36 77 39 115 10z"/>
<path d="M680 1020 l0 -210 40 0 40 0 0 210 0 210 -40 0 -40 0 0 -210z"/>
<path d="M387 1213 c-4 -3 -7 -96 -7 -205 l0 -198 45 0 45 0 0 80 0 80 80 0
80 0 0 40 0 40 -80 0 -80 0 0 45 0 45 80 0 80 0 0 40 0 40 -118 0 c-65 0 -122
-3 -125 -7z"/>
<path d="M890 1098 c-147 -74 -106 -280 59 -296 63 -6 131 25 161 72 28 47 27
122 -3 167 -26 39 -97 79 -142 79 -17 0 -51 -10 -75 -22z m138 -84 c21 -24 28
-66 16 -99 -8 -19 -55 -45 -84 -45 -32 0 -80 53 -80 87 0 82 93 118 148 57z"/>
<path d="M1135 1088 c4 -13 25 -80 48 -150 l41 -128 48 0 47 0 17 58 c9 31 21
77 28 102 l13 44 22 -74 c12 -41 26 -86 30 -100 6 -21 14 -25 54 -28 l46 -3
45 140 c25 77 46 145 46 151 0 7 -16 10 -42 8 l-42 -3 -25 -98 c-14 -54 -28
-92 -32 -85 -3 7 -17 52 -30 101 l-24 87 -47 0 -47 0 -15 -52 c-9 -29 -20 -75
-27 -101 -6 -26 -14 -46 -16 -43 -3 3 -15 47 -27 98 l-21 93 -49 3 c-46 3 -47
2 -41 -20z"/>
<path d="M1617 882 c-22 -24 -21 -45 1 -65 35 -32 92 -11 92 33 0 45 -62 66
-93 32z"/>
</g>
</svg>
