<?xml version="1.0" encoding="UTF-8" standalone="no"?>
<!-- Created with Inkscape (http://www.inkscape.org/) -->

<svg
   width="165.80225"
   height="90.858948"
   viewBox="0 0 165.80225 90.858948"
   version="1.1"
   id="svg1"
   xmlns="http://www.w3.org/2000/svg"
   xmlns:svg="http://www.w3.org/2000/svg">
  <defs
     id="defs1" />
  <g
     id="layer1"
     style="fill:#000000;fill-opacity:1"
     transform="translate(-935,-651.39014)">
    <g
       id="g14"
       transform="translate(-20,228.94922)">
      <g
         id="g13"
         transform="translate(20,-7.4567868)">
        <g
           id="text12"
           style="font-weight:600;font-size:54.0019px;line-height:1;font-family:'Cal Sans';-inkscape-font-specification:'Cal Sans, Semi-Bold';letter-spacing:0.00904692px;fill:#23c45e;stroke-width:35.4942;stroke-linecap:round;paint-order:stroke fill markers"
           transform="scale(1.0181193,0.98220316)"
           aria-label="Mpesa&#10;Flow.">
          <path
             d="m 918.35995,475.48846 h 7.39826 v -15.28253 c 0,-5.13018 -0.16201,-7.66827 -0.54002,-10.96239 l 12.58244,26.24492 h 3.67213 l 12.58244,-26.24492 c -0.37801,3.29412 -0.54002,5.83221 -0.54002,10.96239 v 15.28253 h 7.39826 v -37.80133 h -9.07232 l -7.88427,16.68659 c -2.7541,5.83221 -3.67213,8.26229 -4.15815,10.09836 -0.54002,-1.83607 -1.45805,-4.26615 -4.21215,-10.09836 l -7.83027,-16.68659 h -9.39633 z m 47.42263,10.80038 h 7.29026 v -14.95852 c 1.51205,2.9161 4.05014,4.86017 8.85631,4.86017 7.72227,0 13.87849,-6.53423 13.87849,-14.63452 0,-8.10028 -6.15622,-14.74251 -13.87849,-14.74251 -4.91417,0 -7.45226,2.05207 -8.96431,5.13018 v -4.53616 h -7.18226 z m 7.07425,-24.73287 c 0,-4.37415 3.07811,-8.15428 7.88428,-8.15428 4.64416,0 7.77627,3.72613 7.77627,8.10028 0,4.26615 -3.13211,8.10029 -7.77627,8.10029 -4.80617,0 -7.88428,-3.67213 -7.88428,-8.04629 z m 39.37637,14.63452 c 5.5622,0 10.2603,-2.48409 12.5284,-5.99421 l -5.6702,-4.26615 c -1.296,2.16007 -3.7261,3.78013 -6.8582,3.78013 -3.6722,0 -6.1563,-2.32208 -6.9663,-5.6162 h 21.0068 c 0.162,-0.91803 0.216,-1.78206 0.216,-2.59209 0,-8.10028 -5.8322,-14.79652 -14.2565,-14.79652 -8.4243,0 -14.52654,6.69624 -14.52654,14.79652 0,8.10029 5.83224,14.68852 14.52654,14.68852 z m -6.9663,-17.55062 c 0.81,-3.34812 3.4021,-5.6702 6.8583,-5.6702 3.5641,0 6.2102,2.53809 7.0202,5.6702 z m 33.2201,17.55062 c 6.2102,0 10.9084,-3.88814 10.9084,-9.07232 0,-4.21215 -1.8901,-7.23625 -10.0444,-9.34233 -3.3481,-0.86403 -3.7801,-1.72806 -3.7801,-2.70009 0,-1.72806 1.512,-2.48409 3.5101,-2.48409 1.8901,0 3.6181,0.86403 4.9682,3.02411 l 5.2922,-4.05015 c -2.8621,-3.72613 -5.8862,-4.86017 -10.4224,-4.86017 -6.5882,0 -10.4764,3.67213 -10.4764,8.5863 0,3.56413 1.1341,6.96625 8.6403,8.74831 4.4282,1.02604 5.1302,1.83607 5.1302,3.29412 0,1.67406 -1.404,2.9161 -3.8881,2.9161 -2.3761,0 -4.5362,-1.13404 -6.5882,-3.45612 l -4.9142,4.48216 c 3.0781,3.29411 6.9122,4.91417 11.6644,4.91417 z m 26.5779,0 c 5.0222,0 7.5603,-2.10608 9.0723,-5.29219 v 4.59016 h 7.0743 v -28.08098 h -7.2363 v 4.42815 c -1.512,-3.0241 -4.0501,-5.02217 -8.9103,-5.02217 -7.7223,0 -13.8785,6.64223 -13.8785,14.74251 0,8.10029 6.1562,14.63452 13.8785,14.63452 z m -6.5882,-14.68852 c 0,-4.37415 3.1321,-8.10028 7.7762,-8.10028 4.8062,0 7.8843,3.78013 7.8843,8.15428 0,4.37416 -3.0781,8.04629 -7.8843,8.04629 -4.6441,0 -7.7762,-3.83414 -7.7762,-8.10029 z"
             id="path14" />
          <path
             d="m 918.35995,529.49036 h 7.56026 v -15.44454 h 14.36451 v -6.69623 h -14.36451 v -8.85632 h 14.63452 v -6.80424 h -22.19478 z m 26.25388,0 h 7.29025 v -39.42138 h -7.29025 z m 25.49785,0.70203 c 8.6943,0 14.95852,-6.58823 14.95852,-14.68852 0,-8.10028 -6.26422,-14.74252 -14.95852,-14.74252 -8.69431,0 -14.95853,6.64224 -14.95853,14.74252 0,8.10029 6.26422,14.68852 14.95853,14.68852 z m -7.66827,-14.68852 c 0,-4.37415 3.0241,-8.10028 7.66827,-8.10028 4.64416,0 7.66827,3.72613 7.66827,8.10028 0,4.37416 -3.02411,8.04629 -7.66827,8.04629 -4.64417,0 -7.66827,-3.67213 -7.66827,-8.04629 z m 30.68209,13.98649 h 8.3703 l 4.2121,-15.98456 c 0.3781,-1.35005 0.6481,-2.8081 0.8641,-4.21215 0.216,1.40405 0.54,2.8621 0.972,4.21215 l 4.5902,15.98456 h 7.8842 l 8.7484,-28.08098 h -7.9383 l -3.8882,15.93056 c -0.324,1.35004 -0.648,2.8621 -0.864,4.26615 -0.216,-1.40405 -0.54,-2.97011 -0.918,-4.32016 l -4.3742,-15.87655 h -8.3703 l -4.10412,15.87655 c -0.37801,1.35005 -0.70202,2.91611 -0.91803,4.32016 -0.21601,-1.40405 -0.54002,-2.91611 -0.86403,-4.26615 l -3.61813,-15.93056 h -8.5323 z m 38.2963,0.70203 c 2.8081,0 4.8062,-2.16008 4.8062,-4.75217 0,-2.53809 -1.9981,-4.69816 -4.8062,-4.69816 -2.8081,0 -4.8602,2.16007 -4.8602,4.69816 0,2.59209 2.0521,4.75217 4.8602,4.75217 z"
             id="path15" />
        </g>
      </g>
    </g>
  </g>
</svg>
